<svg xmlns="http://www.w3.org/2000/svg"  viewBox="0 0 48 48" width="48px" height="48px" baseProfile="basic"><linearGradient id="-0zF-8donAREpJ0ScpdWba" x1="45.43" x2="30.594" y1="24" y2="24" gradientUnits="userSpaceOnUse"><stop offset="0" stop-color="#262626" stop-opacity="0"/><stop offset="1" stop-color="#262626" stop-opacity=".8"/></linearGradient><rect width="4" height="8" x="37" y="20" fill="url(#-0zF-8donAREpJ0ScpdWba)"/><linearGradient id="-0zF-8donAREpJ0ScpdWbb" x1="52.413" x2="36.717" y1="16" y2="16" gradientUnits="userSpaceOnUse"><stop offset="0" stop-color="#262626" stop-opacity="0"/><stop offset="1" stop-color="#262626" stop-opacity=".8"/></linearGradient><rect width="4" height="8" x="37" y="12" fill="url(#-0zF-8donAREpJ0ScpdWbb)"/><linearGradient id="-0zF-8donAREpJ0ScpdWbc" x1="48.072" x2="32.377" y1="32" y2="32" gradientUnits="userSpaceOnUse"><stop offset="0" stop-color="#262626" stop-opacity="0"/><stop offset="1" stop-color="#262626" stop-opacity=".8"/></linearGradient><path fill="url(#-0zF-8donAREpJ0ScpdWbc)" d="M41,33v-5h-4v8h1C39.657,36,41,34.657,41,33z"/><linearGradient id="-0zF-8donAREpJ0ScpdWbd" x1="1.207" x2="51.008" y1="59.148" y2="-27.109" gradientUnits="userSpaceOnUse"><stop offset="0" stop-color="#262626" stop-opacity="0"/><stop offset="1" stop-color="#262626" stop-opacity=".8"/></linearGradient><path fill="url(#-0zF-8donAREpJ0ScpdWbd)" d="M37,5v32c0,3.314-2.686,6-6,6H6V11c0-3.314,2.686-6,6-6H37z"/><linearGradient id="-0zF-8donAREpJ0ScpdWbe" x1="12.009" x2="28.736" y1="48" y2="19.027" gradientUnits="userSpaceOnUse"><stop offset=".005" stop-color="#262626" stop-opacity="0"/><stop offset=".965" stop-color="#262626" stop-opacity=".8"/></linearGradient><path fill="url(#-0zF-8donAREpJ0ScpdWbe)" d="M29,33c0-4.418-3.582-8-8-8h0c-4.418,0-8,3.582-8,8v1h16V33z"/><linearGradient id="-0zF-8donAREpJ0ScpdWbf" x1="13.369" x2="27.576" y1="32.217" y2="7.611" gradientUnits="userSpaceOnUse"><stop offset="0" stop-color="#262626" stop-opacity="0"/><stop offset=".844" stop-color="#262626" stop-opacity=".8"/></linearGradient><path fill="url(#-0zF-8donAREpJ0ScpdWbf)" d="M25,20c0,1.657-1.343,3-3,3h-5v-5c0-1.657,1.343-3,3-3h5V20z"/></svg>