<svg xmlns="http://www.w3.org/2000/svg" viewBox="0 0 48 48">
    <!-- LinkedIn symbol in blue, enlarged by adjusting the coordinates -->
    <path fill="#0288D1" d="M10 17H16V38H10zM13.076 15h-.033C11.285 15 10 13.668 10 12.033 10 10.363 11.321 9 13.076 9c1.755 0 2.835 1.363 2.869 3.033C15.945 13.668 14.831 15 13.076 15zM38 38h-6v-11.099c0-2.198-1.225-3.698-3.192-3.698-1.501 0-2.313 1.012-2.707 1.99C25.957 25.543 26 26.511 26 27v11h-6V17h6v2.616C26.721 18.5 28.85 17 31.738 17c3.578 0 6.261 2.25 6.261 7.274L38 38 38 38z"/>
</svg>