{
	"asset":{
		"generator":"Khronos glTF Blender I/O v4.4.55",
		"version":"2.0"
	},
	"scene":0,
	"scenes":[
		{
			"name":"Scene",
			"nodes":[
				26
			]
		}
	],
	"nodes":[
		{
			"mesh":0,
			"name":"Cube_Palm Rest_0"
		},
		{
			"mesh":1,
			"name":"Cube_TrackPad_0"
		},
		{
			"mesh":2,
			"name":"Cube_TrackPad_Buttons_0"
		},
		{
			"mesh":3,
			"name":"Rotator2_Back_0",
			"translation":[
				-3.5276666494610254e-06,
				0,
				0
			]
		},
		{
			"mesh":4,
			"name":"Edge1_Back_0",
			"translation":[
				1.4457327779382467e-05,
				7.845519576221704e-06,
				-4.679950961872237e-06
			]
		},
		{
			"children":[
				4
			],
			"name":"Edge1",
			"scale":[
				1.3297972679138184,
				0.015584331937134266,
				0.05474191904067993
			],
			"translation":[
				-2.087702989578247,
				0.9848327040672302,
				1.9326215982437134
			]
		},
		{
			"mesh":5,
			"name":"Edge2_Back_0",
			"translation":[
				2.2663749405182898e-05,
				-1.166426227428019e-05,
				-1.495388278272003e-05
			]
		},
		{
			"children":[
				6
			],
			"name":"Edge2",
			"rotation":[
				0,
				1,
				0,
				4.3641442459829705e-08
			],
			"scale":[
				-1.3297972679138184,
				-0.015584331937134266,
				-0.05474191904067993
			],
			"translation":[
				-2.0877268314361572,
				-0.9885184168815613,
				1.932621717453003
			]
		},
		{
			"mesh":6,
			"name":"Screen_Back_0",
			"translation":[
				-7.4849890552286524e-06,
				0,
				0
			]
		},
		{
			"mesh":7,
			"name":"Screen_TrackPad_Buttons_0",
			"translation":[
				-7.4849890552286524e-06,
				0,
				0
			]
		},
		{
			"mesh":8,
			"name":"Screen_Windows_0",
			"translation":[
				-7.4849890552286524e-06,
				0,
				0
			]
		},
		{
			"mesh":9,
			"name":"WebCam_WebCam_0",
			"translation":[
				-6.538607067341218e-06,
				0,
				-7.990706944838166e-05
			]
		},
		{
			"children":[
				11
			],
			"name":"WebCam",
			"rotation":[
				0,
				-0.7071049213409424,
				-3.971333171648439e-06,
				0.7071086168289185
			],
			"scale":[
				0.029851699247956276,
				0.01951499842107296,
				0.041458334773778915
			],
			"translation":[
				-1.1030110120773315,
				0,
				1.9178462028503418
			]
		},
		{
			"children":[
				5,
				7,
				8,
				9,
				10,
				12
			],
			"name":"Screen",
			"scale":[
				0.5321109890937805,
				5.1122002601623535,
				58.18103790283203
			],
			"translation":[
				-3.5276666494610254e-06,
				0,
				0
			]
		},
		{
			"children":[
				3,
				13
			],
			"name":"Rotator2",
			"rotation":[
				-2.3926600078993943e-06,
				-0.7071077823638916,
				0,
				0.7071057558059692
			],
			"scale":[
				0.03429824113845825,
				0.19556958973407745,
				0.5135065913200378
			],
			"translation":[
				-1.5800379514694214,
				0,
				-2.00883412361145
			]
		},
		{
			"children":[
				0,
				1,
				2,
				14
			],
			"name":"Cube",
			"rotation":[
				0.5,
				0.5,
				-0.49999988079071045,
				0.5000001192092896
			],
			"scale":[
				3.3471274375915527,
				153,
				99.99999237060547
			]
		},
		{
			"mesh":10,
			"name":"Plane_Processor_logo_0"
		},
		{
			"children":[
				16
			],
			"name":"Plane",
			"rotation":[
				0,
				0,
				0.7071068286895752,
				0.7071067094802856
			],
			"scale":[
				8.1075439453125,
				8.836584091186523,
				8.107547760009766
			],
			"translation":[
				123.14949035644531,
				52.954280853271484,
				6.8963704109191895
			]
		},
		{
			"mesh":11,
			"name":"Plane.001_GPU Logo_0"
		},
		{
			"children":[
				18
			],
			"name":"Plane.001",
			"rotation":[
				0,
				0,
				0.7071068286895752,
				0.7071067094802856
			],
			"scale":[
				5.779224872589111,
				12.851482391357422,
				8.107547760009766
			],
			"translation":[
				119.56134033203125,
				30.985458374023438,
				6.8963704109191895
			]
		},
		{
			"mesh":12,
			"name":"Plane.002_Windows Logo_0"
		},
		{
			"children":[
				20
			],
			"name":"Plane.002",
			"rotation":[
				0,
				0,
				0.7071068286895752,
				0.7071067094802856
			],
			"scale":[
				6.4160380363464355,
				6.416037559509277,
				6.416038990020752
			],
			"translation":[
				-102.4369125366211,
				89.68829345703125,
				7.6171159744262695
			]
		},
		{
			"mesh":13,
			"name":"Text_Kays_0",
			"translation":[
				0,
				4.352554242359474e-06,
				0
			]
		},
		{
			"children":[
				22
			],
			"name":"Text",
			"scale":[
				5.055947303771973,
				4.279862880706787,
				15.82979679107666
			],
			"translation":[
				-136.88629150390625,
				171.47792053222656,
				7.598503112792969
			]
		},
		{
			"children":[
				15,
				17,
				19,
				21,
				23
			],
			"name":"RootNode"
		},
		{
			"children":[
				24
			],
			"name":"fe6861a95b8d4f1cbe21ecad06d9c6d3.fbx",
			"rotation":[
				-1,
				0,
				0,
				4.440892098500626e-14
			],
			"scale":[
				0.009999999776482582,
				0.009999999776482582,
				0.009999999776482582
			]
		},
		{
			"children":[
				25
			],
			"name":"Sketchfab_model",
			"rotation":[
				0.70710688829422,
				0,
				0,
				0.7071066498756409
			]
		}
	],
	"materials":[
		{
			"doubleSided":true,
			"name":"Palm_Rest.001",
			"pbrMetallicRoughness":{
				"baseColorFactor":[
					0.031062999740242958,
					0.02733219973742962,
					0.02733219973742962,
					1
				],
				"metallicFactor":0,
				"roughnessFactor":0.9922673106193542
			}
		},
		{
			"doubleSided":true,
			"name":"TrackPad.001",
			"pbrMetallicRoughness":{
				"baseColorFactor":[
					0.04696099832653999,
					0.04696099832653999,
					0.04696099832653999,
					1
				],
				"metallicFactor":0,
				"roughnessFactor":0.9894992113113403
			}
		},
		{
			"doubleSided":true,
			"name":"TrackPad_Buttons.001",
			"pbrMetallicRoughness":{
				"baseColorFactor":[
					0.018848299980163574,
					0.018848299980163574,
					0.018848299980163574,
					1
				],
				"metallicFactor":0,
				"roughnessFactor":0.9957854151725769
			}
		},
		{
			"doubleSided":true,
			"name":"Back.001",
			"pbrMetallicRoughness":{
				"baseColorTexture":{
					"index":0
				},
				"metallicFactor":0,
				"roughnessFactor":0.7766398787498474
			}
		},
		{
			"doubleSided":true,
			"emissiveFactor":[
				1,
				1,
				1
			],
			"emissiveTexture":{
				"index":1,
				"texCoord":1
			},
			"name":"Windows.001",
			"pbrMetallicRoughness":{
				"baseColorTexture":{
					"index":2
				},
				"metallicFactor":0,
				"roughnessFactor":0.8211145401000977
			}
		},
		{
			"doubleSided":true,
			"name":"WebCam.001",
			"pbrMetallicRoughness":{
				"baseColorTexture":{
					"index":3
				},
				"metallicFactor":0,
				"roughnessFactor":0.7755146026611328
			}
		},
		{
			"doubleSided":true,
			"name":"Processor_logo.001",
			"pbrMetallicRoughness":{
				"baseColorTexture":{
					"index":4
				},
				"metallicFactor":0,
				"roughnessFactor":0.8589131236076355
			}
		},
		{
			"doubleSided":true,
			"name":"GPU_Logo.001",
			"pbrMetallicRoughness":{
				"baseColorTexture":{
					"index":5
				},
				"metallicFactor":0,
				"roughnessFactor":0.8211145401000977
			}
		},
		{
			"doubleSided":true,
			"name":"Windows_Logo.001",
			"pbrMetallicRoughness":{
				"baseColorTexture":{
					"index":6
				},
				"metallicFactor":0,
				"roughnessFactor":0.8211145401000977
			}
		},
		{
			"doubleSided":true,
			"name":"Kays.001",
			"pbrMetallicRoughness":{
				"baseColorFactor":[
					0.5173320174217224,
					0.5173320174217224,
					0.5173320174217224,
					1
				],
				"metallicFactor":0,
				"roughnessFactor":0.8843210339546204
			}
		}
	],
	"meshes":[
		{
			"name":"Cube_Palm Rest_0.001",
			"primitives":[
				{
					"attributes":{
						"POSITION":0,
						"NORMAL":1,
						"TEXCOORD_0":2
					},
					"indices":3,
					"material":0
				}
			]
		},
		{
			"name":"Cube_TrackPad_0.001",
			"primitives":[
				{
					"attributes":{
						"POSITION":4,
						"NORMAL":5,
						"TEXCOORD_0":6
					},
					"indices":7,
					"material":1
				}
			]
		},
		{
			"name":"Cube_TrackPad_Buttons_0.001",
			"primitives":[
				{
					"attributes":{
						"POSITION":8,
						"NORMAL":9,
						"TEXCOORD_0":10
					},
					"indices":11,
					"material":2
				}
			]
		},
		{
			"name":"Rotator2_Back_0.001",
			"primitives":[
				{
					"attributes":{
						"POSITION":12,
						"NORMAL":13,
						"TEXCOORD_0":14
					},
					"indices":15,
					"material":3
				}
			]
		},
		{
			"name":"Edge1_Back_0.001",
			"primitives":[
				{
					"attributes":{
						"POSITION":16,
						"NORMAL":17,
						"TEXCOORD_0":18
					},
					"indices":19,
					"material":3
				}
			]
		},
		{
			"name":"Edge2_Back_0.001",
			"primitives":[
				{
					"attributes":{
						"POSITION":20,
						"NORMAL":21,
						"TEXCOORD_0":22
					},
					"indices":19,
					"material":3
				}
			]
		},
		{
			"name":"Screen_Back_0.001",
			"primitives":[
				{
					"attributes":{
						"POSITION":23,
						"NORMAL":24,
						"TEXCOORD_0":25
					},
					"indices":26,
					"material":3
				}
			]
		},
		{
			"name":"Screen_TrackPad_Buttons_0.001",
			"primitives":[
				{
					"attributes":{
						"POSITION":27,
						"NORMAL":28,
						"TEXCOORD_0":29
					},
					"indices":30,
					"material":2
				}
			]
		},
		{
			"name":"Screen_Windows_0.001",
			"primitives":[
				{
					"attributes":{
						"POSITION":31,
						"NORMAL":32,
						"TEXCOORD_0":33,
						"TEXCOORD_1":34
					},
					"indices":35,
					"material":4
				}
			]
		},
		{
			"name":"WebCam_WebCam_0.001",
			"primitives":[
				{
					"attributes":{
						"POSITION":36,
						"NORMAL":37,
						"TEXCOORD_0":38
					},
					"indices":39,
					"material":5
				}
			]
		},
		{
			"name":"Plane_Processor_logo_0.001",
			"primitives":[
				{
					"attributes":{
						"POSITION":40,
						"NORMAL":41,
						"TEXCOORD_0":42
					},
					"indices":43,
					"material":6
				}
			]
		},
		{
			"name":"Plane.001_GPU Logo_0.001",
			"primitives":[
				{
					"attributes":{
						"POSITION":44,
						"NORMAL":45,
						"TEXCOORD_0":46
					},
					"indices":47,
					"material":7
				}
			]
		},
		{
			"name":"Plane.002_Windows Logo_0.001",
			"primitives":[
				{
					"attributes":{
						"POSITION":48,
						"NORMAL":49,
						"TEXCOORD_0":50
					},
					"indices":43,
					"material":8
				}
			]
		},
		{
			"name":"Text_Kays_0.001",
			"primitives":[
				{
					"attributes":{
						"POSITION":51,
						"NORMAL":52,
						"TEXCOORD_0":53
					},
					"indices":54,
					"material":9
				}
			]
		}
	],
	"textures":[
		{
			"sampler":0,
			"source":0
		},
		{
			"sampler":0,
			"source":1
		},
		{
			"sampler":0,
			"source":1
		},
		{
			"sampler":0,
			"source":2
		},
		{
			"sampler":0,
			"source":3
		},
		{
			"sampler":0,
			"source":4
		},
		{
			"sampler":0,
			"source":5
		}
	],
	"images":[
		{
			"mimeType":"image/png",
			"name":"Image_0",
			"uri":"texture/Image_0.png"
		},
		{
			"mimeType":"image/png",
			"name":"Image_1",
			"uri":"texture/Image_1.png"
		},
		{
			"mimeType":"image/jpeg",
			"name":"Image_2",
			"uri":"texture/Image_2.jpg"
		},
		{
			"mimeType":"image/jpeg",
			"name":"Image_3",
			"uri":"texture/Image_3.jpg"
		},
		{
			"mimeType":"image/jpeg",
			"name":"Image_4",
			"uri":"texture/Image_4.jpg"
		},
		{
			"mimeType":"image/jpeg",
			"name":"Image_5",
			"uri":"texture/Image_5.jpg"
		}
	],
	"accessors":[
		{
			"bufferView":0,
			"componentType":5126,
			"count":627,
			"max":[
				-0.0026984214782714844,
				1.0000001192092896,
				-0.015550971031188965
			],
			"min":[
				-2.0026984214782715,
				-0.9999998807907104,
				-2.0155510902404785
			],
			"type":"VEC3"
		},
		{
			"bufferView":1,
			"componentType":5126,
			"count":627,
			"type":"VEC3"
		},
		{
			"bufferView":2,
			"componentType":5126,
			"count":627,
			"type":"VEC2"
		},
		{
			"bufferView":3,
			"componentType":5123,
			"count":1155,
			"type":"SCALAR"
		},
		{
			"bufferView":4,
			"componentType":5126,
			"count":8,
			"max":[
				-1.9036211967468262,
				0.06547930836677551,
				-0.23367196321487427
			],
			"min":[
				-1.9036211967468262,
				-0.4241390824317932,
				-0.812451183795929
			],
			"type":"VEC3"
		},
		{
			"bufferView":5,
			"componentType":5126,
			"count":8,
			"type":"VEC3"
		},
		{
			"bufferView":6,
			"componentType":5126,
			"count":8,
			"type":"VEC2"
		},
		{
			"bufferView":7,
			"componentType":5123,
			"count":12,
			"type":"SCALAR"
		},
		{
			"bufferView":8,
			"componentType":5126,
			"count":28,
			"max":[
				-1.7597304582595825,
				0.9543155431747437,
				-0.15450209379196167
			],
			"min":[
				-1.9830818176269531,
				-0.9551852941513062,
				-1.7847239971160889
			],
			"type":"VEC3"
		},
		{
			"bufferView":9,
			"componentType":5126,
			"count":28,
			"type":"VEC3"
		},
		{
			"bufferView":10,
			"componentType":5126,
			"count":28,
			"type":"VEC2"
		},
		{
			"bufferView":11,
			"componentType":5123,
			"count":54,
			"type":"SCALAR"
		},
		{
			"bufferView":12,
			"componentType":5126,
			"count":528,
			"max":[
				0.8018468618392944,
				4.010259628295898,
				1.038691759109497
			],
			"min":[
				-1.1981531381607056,
				-4.010119915008545,
				-0.9613082408905029
			],
			"type":"VEC3"
		},
		{
			"bufferView":13,
			"componentType":5126,
			"count":528,
			"type":"VEC3"
		},
		{
			"bufferView":14,
			"componentType":5126,
			"count":528,
			"type":"VEC2"
		},
		{
			"bufferView":15,
			"componentType":5123,
			"count":1032,
			"type":"SCALAR"
		},
		{
			"bufferView":16,
			"componentType":5126,
			"count":984,
			"max":[
				1.0070853233337402,
				1,
				1
			],
			"min":[
				-1,
				-1.0070853233337402,
				-1.0070853233337402
			],
			"type":"VEC3"
		},
		{
			"bufferView":17,
			"componentType":5126,
			"count":984,
			"type":"VEC3"
		},
		{
			"bufferView":18,
			"componentType":5126,
			"count":984,
			"type":"VEC2"
		},
		{
			"bufferView":19,
			"componentType":5123,
			"count":1542,
			"type":"SCALAR"
		},
		{
			"bufferView":20,
			"componentType":5126,
			"count":984,
			"max":[
				1.0070853233337402,
				1,
				1
			],
			"min":[
				-1,
				-1.0070853233337402,
				-1.0070853233337402
			],
			"type":"VEC3"
		},
		{
			"bufferView":21,
			"componentType":5126,
			"count":984,
			"type":"VEC3"
		},
		{
			"bufferView":22,
			"componentType":5126,
			"count":984,
			"type":"VEC2"
		},
		{
			"bufferView":23,
			"componentType":5126,
			"count":827,
			"max":[
				-1.0650912523269653,
				1.0000001192092896,
				1.9741923809051514
			],
			"min":[
				-3.065091133117676,
				-0.9999998807907104,
				-0.025807587429881096
			],
			"type":"VEC3"
		},
		{
			"bufferView":24,
			"componentType":5126,
			"count":827,
			"type":"VEC3"
		},
		{
			"bufferView":25,
			"componentType":5126,
			"count":827,
			"type":"VEC2"
		},
		{
			"bufferView":26,
			"componentType":5123,
			"count":1392,
			"type":"SCALAR"
		},
		{
			"bufferView":27,
			"componentType":5126,
			"count":14,
			"max":[
				-1.0650912523269653,
				1.0000001192092896,
				1.9741923809051514
			],
			"min":[
				-1.0650912523269653,
				-0.9999998807907104,
				-0.025807587429881096
			],
			"type":"VEC3"
		},
		{
			"bufferView":28,
			"componentType":5126,
			"count":14,
			"type":"VEC3"
		},
		{
			"bufferView":29,
			"componentType":5126,
			"count":14,
			"type":"VEC2"
		},
		{
			"bufferView":30,
			"componentType":5123,
			"count":36,
			"type":"SCALAR"
		},
		{
			"bufferView":31,
			"componentType":5126,
			"count":20,
			"max":[
				-1.0650912523269653,
				0.9698539972305298,
				1.877685546875
			],
			"min":[
				-1.2506024837493896,
				-0.973200261592865,
				0.05872860550880432
			],
			"type":"VEC3"
		},
		{
			"bufferView":32,
			"componentType":5126,
			"count":20,
			"type":"VEC3"
		},
		{
			"bufferView":33,
			"componentType":5126,
			"count":20,
			"type":"VEC2"
		},
		{
			"bufferView":34,
			"componentType":5126,
			"count":20,
			"type":"VEC2"
		},
		{
			"bufferView":35,
			"componentType":5123,
			"count":30,
			"type":"SCALAR"
		},
		{
			"bufferView":36,
			"componentType":5126,
			"count":192,
			"max":[
				1,
				1,
				1
			],
			"min":[
				-1,
				-1,
				-1
			],
			"type":"VEC3"
		},
		{
			"bufferView":37,
			"componentType":5126,
			"count":192,
			"type":"VEC3"
		},
		{
			"bufferView":38,
			"componentType":5126,
			"count":192,
			"type":"VEC2"
		},
		{
			"bufferView":39,
			"componentType":5123,
			"count":372,
			"type":"SCALAR"
		},
		{
			"bufferView":40,
			"componentType":5126,
			"count":4,
			"max":[
				1,
				1,
				0
			],
			"min":[
				-1,
				-1,
				0
			],
			"type":"VEC3"
		},
		{
			"bufferView":41,
			"componentType":5126,
			"count":4,
			"type":"VEC3"
		},
		{
			"bufferView":42,
			"componentType":5126,
			"count":4,
			"type":"VEC2"
		},
		{
			"bufferView":43,
			"componentType":5123,
			"count":6,
			"type":"SCALAR"
		},
		{
			"bufferView":44,
			"componentType":5126,
			"count":7,
			"max":[
				1,
				1,
				0
			],
			"min":[
				-1,
				-1,
				0
			],
			"type":"VEC3"
		},
		{
			"bufferView":45,
			"componentType":5126,
			"count":7,
			"type":"VEC3"
		},
		{
			"bufferView":46,
			"componentType":5126,
			"count":7,
			"type":"VEC2"
		},
		{
			"bufferView":47,
			"componentType":5123,
			"count":15,
			"type":"SCALAR"
		},
		{
			"bufferView":48,
			"componentType":5126,
			"count":4,
			"max":[
				1,
				1,
				0
			],
			"min":[
				-1,
				-1,
				0
			],
			"type":"VEC3"
		},
		{
			"bufferView":49,
			"componentType":5126,
			"count":4,
			"type":"VEC3"
		},
		{
			"bufferView":50,
			"componentType":5126,
			"count":4,
			"type":"VEC2"
		},
		{
			"bufferView":51,
			"componentType":5126,
			"count":331,
			"max":[
				1.2670000791549683,
				0.4580000340938568,
				0
			],
			"min":[
				0.04100000113248825,
				-0.009000000543892384,
				0
			],
			"type":"VEC3"
		},
		{
			"bufferView":52,
			"componentType":5126,
			"count":331,
			"type":"VEC3"
		},
		{
			"bufferView":53,
			"componentType":5126,
			"count":331,
			"type":"VEC2"
		},
		{
			"bufferView":54,
			"componentType":5123,
			"count":981,
			"type":"SCALAR"
		}
	],
	"bufferViews":[
		{
			"buffer":0,
			"byteLength":7524,
			"byteOffset":0,
			"target":34962
		},
		{
			"buffer":0,
			"byteLength":7524,
			"byteOffset":7524,
			"target":34962
		},
		{
			"buffer":0,
			"byteLength":5016,
			"byteOffset":15048,
			"target":34962
		},
		{
			"buffer":0,
			"byteLength":2310,
			"byteOffset":20064,
			"target":34963
		},
		{
			"buffer":0,
			"byteLength":96,
			"byteOffset":22376,
			"target":34962
		},
		{
			"buffer":0,
			"byteLength":96,
			"byteOffset":22472,
			"target":34962
		},
		{
			"buffer":0,
			"byteLength":64,
			"byteOffset":22568,
			"target":34962
		},
		{
			"buffer":0,
			"byteLength":24,
			"byteOffset":22632,
			"target":34963
		},
		{
			"buffer":0,
			"byteLength":336,
			"byteOffset":22656,
			"target":34962
		},
		{
			"buffer":0,
			"byteLength":336,
			"byteOffset":22992,
			"target":34962
		},
		{
			"buffer":0,
			"byteLength":224,
			"byteOffset":23328,
			"target":34962
		},
		{
			"buffer":0,
			"byteLength":108,
			"byteOffset":23552,
			"target":34963
		},
		{
			"buffer":0,
			"byteLength":6336,
			"byteOffset":23660,
			"target":34962
		},
		{
			"buffer":0,
			"byteLength":6336,
			"byteOffset":29996,
			"target":34962
		},
		{
			"buffer":0,
			"byteLength":4224,
			"byteOffset":36332,
			"target":34962
		},
		{
			"buffer":0,
			"byteLength":2064,
			"byteOffset":40556,
			"target":34963
		},
		{
			"buffer":0,
			"byteLength":11808,
			"byteOffset":42620,
			"target":34962
		},
		{
			"buffer":0,
			"byteLength":11808,
			"byteOffset":54428,
			"target":34962
		},
		{
			"buffer":0,
			"byteLength":7872,
			"byteOffset":66236,
			"target":34962
		},
		{
			"buffer":0,
			"byteLength":3084,
			"byteOffset":74108,
			"target":34963
		},
		{
			"buffer":0,
			"byteLength":11808,
			"byteOffset":77192,
			"target":34962
		},
		{
			"buffer":0,
			"byteLength":11808,
			"byteOffset":89000,
			"target":34962
		},
		{
			"buffer":0,
			"byteLength":7872,
			"byteOffset":100808,
			"target":34962
		},
		{
			"buffer":0,
			"byteLength":9924,
			"byteOffset":108680,
			"target":34962
		},
		{
			"buffer":0,
			"byteLength":9924,
			"byteOffset":118604,
			"target":34962
		},
		{
			"buffer":0,
			"byteLength":6616,
			"byteOffset":128528,
			"target":34962
		},
		{
			"buffer":0,
			"byteLength":2784,
			"byteOffset":135144,
			"target":34963
		},
		{
			"buffer":0,
			"byteLength":168,
			"byteOffset":137928,
			"target":34962
		},
		{
			"buffer":0,
			"byteLength":168,
			"byteOffset":138096,
			"target":34962
		},
		{
			"buffer":0,
			"byteLength":112,
			"byteOffset":138264,
			"target":34962
		},
		{
			"buffer":0,
			"byteLength":72,
			"byteOffset":138376,
			"target":34963
		},
		{
			"buffer":0,
			"byteLength":240,
			"byteOffset":138448,
			"target":34962
		},
		{
			"buffer":0,
			"byteLength":240,
			"byteOffset":138688,
			"target":34962
		},
		{
			"buffer":0,
			"byteLength":160,
			"byteOffset":138928,
			"target":34962
		},
		{
			"buffer":0,
			"byteLength":160,
			"byteOffset":139088,
			"target":34962
		},
		{
			"buffer":0,
			"byteLength":60,
			"byteOffset":139248,
			"target":34963
		},
		{
			"buffer":0,
			"byteLength":2304,
			"byteOffset":139308,
			"target":34962
		},
		{
			"buffer":0,
			"byteLength":2304,
			"byteOffset":141612,
			"target":34962
		},
		{
			"buffer":0,
			"byteLength":1536,
			"byteOffset":143916,
			"target":34962
		},
		{
			"buffer":0,
			"byteLength":744,
			"byteOffset":145452,
			"target":34963
		},
		{
			"buffer":0,
			"byteLength":48,
			"byteOffset":146196,
			"target":34962
		},
		{
			"buffer":0,
			"byteLength":48,
			"byteOffset":146244,
			"target":34962
		},
		{
			"buffer":0,
			"byteLength":32,
			"byteOffset":146292,
			"target":34962
		},
		{
			"buffer":0,
			"byteLength":12,
			"byteOffset":146324,
			"target":34963
		},
		{
			"buffer":0,
			"byteLength":84,
			"byteOffset":146336,
			"target":34962
		},
		{
			"buffer":0,
			"byteLength":84,
			"byteOffset":146420,
			"target":34962
		},
		{
			"buffer":0,
			"byteLength":56,
			"byteOffset":146504,
			"target":34962
		},
		{
			"buffer":0,
			"byteLength":30,
			"byteOffset":146560,
			"target":34963
		},
		{
			"buffer":0,
			"byteLength":48,
			"byteOffset":146592,
			"target":34962
		},
		{
			"buffer":0,
			"byteLength":48,
			"byteOffset":146640,
			"target":34962
		},
		{
			"buffer":0,
			"byteLength":32,
			"byteOffset":146688,
			"target":34962
		},
		{
			"buffer":0,
			"byteLength":3972,
			"byteOffset":146720,
			"target":34962
		},
		{
			"buffer":0,
			"byteLength":3972,
			"byteOffset":150692,
			"target":34962
		},
		{
			"buffer":0,
			"byteLength":2648,
			"byteOffset":154664,
			"target":34962
		},
		{
			"buffer":0,
			"byteLength":1962,
			"byteOffset":157312,
			"target":34963
		}
	],
	"samplers":[
		{
			"magFilter":9729,
			"minFilter":9987
		}
	],
	"buffers":[
		{
			"byteLength":159276,
			"uri":"scene.bin"
		}
	]
}
